<svg width="58" height="58" viewBox="0 0 58 58" fill="none" xmlns="http://www.w3.org/2000/svg">
<g filter="url(#filter0_i)">
<path d="M23.0237 52.7057C22.8273 52.8216 22.6211 52.5712 22.7725 52.4007L25.001 49.8907L27.0583 46.8361C27.1497 46.7004 27.3565 46.7259 27.4122 46.8797L27.934 48.3185C27.9497 48.3617 27.9797 48.3982 28.0191 48.4218L29.3313 49.2096C29.4716 49.2938 29.4569 49.5016 29.3063 49.5652L25.9141 50.9993L23.0237 52.7057Z" fill="#C4C4C4"/>
<path d="M38.2177 44.3947C39.4656 43.815 39.7689 42.1776 38.8116 41.1893L37.4916 39.8267C36.7231 39.0333 35.4569 39.0132 34.6635 39.7818L29.4679 44.8149C28.8764 45.3879 28.7807 46.3024 29.2408 46.9854C29.7076 47.6784 30.6089 47.9294 31.3667 47.5773L38.2177 44.3947Z" fill="#606060"/>
<path d="M13.5343 19.5818C14.1338 18.3432 15.7758 18.0659 16.7487 19.0389L18.0902 20.3803C18.8712 21.1613 18.8712 22.4277 18.0902 23.2087L12.9751 28.3238C12.3928 28.9061 11.4769 28.9872 10.8013 28.5164C10.1158 28.0386 9.87917 27.1334 10.2432 26.3813L12.1855 22.3684L13.5343 19.5818Z" fill="#606060"/>
<ellipse cx="34.977" cy="22.4249" rx="6.51254" ry="13.6171" transform="rotate(45 34.977 22.4249)" fill="#606060"/>
<rect x="40.0007" y="14.8892" width="3.55229" height="3.55229" rx="1.77615" transform="rotate(45 40.0007 14.8892)" fill="white"/>
<path d="M5.37729 35.0648C5.20761 35.2175 4.95572 35.0125 5.07077 34.8153L6.77143 31.9014L8.1983 28.4845C8.26134 28.3336 8.46911 28.318 8.5539 28.458L9.34745 29.7675C9.37138 29.807 9.40822 29.837 9.45174 29.8524L10.8951 30.3636C11.0494 30.4182 11.0763 30.6248 10.9413 30.7172L7.8853 32.808L5.37729 35.0648Z" fill="#C4C4C4"/>
</g>
<rect x="29.6713" y="56.1903" width="1" height="55" rx="0.5" transform="rotate(-180 29.6713 56.1903)" fill="#939393"/>
<rect x="1.67126" y="29.1903" width="1" height="55" rx="0.5" transform="rotate(-90 1.67126 29.1903)" fill="#939393"/>
<rect x="56.6713" y="43.1903" width="1" height="55" rx="0.5" transform="rotate(90 56.6713 43.1903)" fill="#939393"/>
<rect x="43.6713" y="1.19031" width="1" height="55" rx="0.5" fill="#939393"/>
<rect x="56.6713" y="13.1903" width="1" height="55" rx="0.5" transform="rotate(90 56.6713 13.1903)" fill="#939393"/>
<rect x="13.6713" y="1.19031" width="1" height="55" rx="0.5" fill="#939393"/>
<defs>
<filter id="filter0_i" x="3.73914" y="8.19102" width="45.4717" height="49.8408" filterUnits="userSpaceOnUse" color-interpolation-filters="sRGB">
<feFlood flood-opacity="0" result="BackgroundImageFix"/>
<feBlend mode="normal" in="SourceGraphic" in2="BackgroundImageFix" result="shape"/>
<feColorMatrix in="SourceAlpha" type="matrix" values="0 0 0 0 0 0 0 0 0 0 0 0 0 0 0 0 0 0 127 0" result="hardAlpha"/>
<feOffset dy="4"/>
<feGaussianBlur stdDeviation="2"/>
<feComposite in2="hardAlpha" operator="arithmetic" k2="-1" k3="1"/>
<feColorMatrix type="matrix" values="0 0 0 0 0 0 0 0 0 0 0 0 0 0 0 0 0 0 0.5 0"/>
<feBlend mode="normal" in2="shape" result="effect1_innerShadow"/>
</filter>
</defs>
</svg>
