<svg width="94" height="93" viewBox="0 0 94 93" fill="none" xmlns="http://www.w3.org/2000/svg">
<g filter="url(#filter0_i)">
<path d="M36.3304 85.0583C36.134 85.1743 35.9277 84.9239 36.0791 84.7533L40.1719 80.1436L43.61 75.0389C43.7014 74.9032 43.9082 74.9286 43.9639 75.0824L44.8981 77.6585C44.9138 77.7017 44.9438 77.7382 44.9832 77.7618L47.3326 79.1722C47.4729 79.2564 47.4582 79.4642 47.3076 79.5279L41.6387 81.9244L36.3304 85.0583Z" fill="#6B2D03"/>
<path d="M62.9497 70.5962C64.1976 70.0165 64.501 68.3791 63.5436 67.3908L59.3927 63.1059C58.6242 62.3125 57.358 62.2924 56.5646 63.0609L46.908 72.4154C46.2121 73.0896 46.0995 74.1657 46.6408 74.9693L47.3308 75.9936C47.88 76.809 48.9405 77.1043 49.8322 76.6901L62.9497 70.5962Z" fill="#6B2D03"/>
<path d="M22.495 29.9205C23.0945 28.682 24.7365 28.4047 25.7094 29.3776L29.9279 33.5961C30.709 34.3772 30.709 35.6435 29.9279 36.4246L20.4212 45.9313C19.736 46.6164 18.6583 46.7119 17.8634 46.1579L16.8502 45.4518C16.0436 44.8896 15.7652 43.8246 16.1935 42.9396L19.5852 35.9323L22.495 29.9205Z" fill="#6B2D03"/>
<ellipse cx="56.1972" cy="36.0229" rx="10.4616" ry="21.8743" transform="rotate(45 56.1972 36.0229)" fill="#6B2D03"/>
<rect x="64.2672" y="23.9178" width="5.70635" height="5.70635" rx="2" transform="rotate(45 64.2672 23.9178)" fill="white"/>
<path d="M8.07132 56.8471C7.90164 56.9998 7.64975 56.7947 7.76481 56.5976L10.8882 51.2458L13.2723 45.5369C13.3353 45.3859 13.5431 45.3704 13.6279 45.5103L15.0487 47.8551C15.0727 47.8946 15.1095 47.9245 15.153 47.94L17.7374 48.8552C17.8916 48.9098 17.9186 49.1164 17.7836 49.2088L12.6775 52.7022L8.07132 56.8471Z" fill="#6B2D03"/>
</g>
<rect x="47.6741" y="90.2632" width="1.60638" height="88.3511" rx="0.803192" transform="rotate(-180 47.6741 90.2632)" fill="#A8A8A8"/>
<rect x="2.69531" y="46.8908" width="1.60638" height="88.3511" rx="0.803192" transform="rotate(-90 2.69531 46.8908)" fill="#A8A8A8"/>
<rect x="91.0464" y="69.3802" width="1.60638" height="88.3511" rx="0.803192" transform="rotate(90 91.0464 69.3802)" fill="#A8A8A8"/>
<rect x="70.1635" y="1.91209" width="1.60638" height="88.3511" rx="0.803192" fill="#A8A8A8"/>
<rect x="91.0464" y="21.1887" width="1.60638" height="88.3511" rx="0.803192" transform="rotate(90 91.0464 21.1887)" fill="#A8A8A8"/>
<rect x="21.9719" y="1.91209" width="1.60638" height="88.3511" rx="0.803192" fill="#A8A8A8"/>
<defs>
<filter id="filter0_i" x="5.54907" y="13.1579" width="73.5132" height="78.1065" filterUnits="userSpaceOnUse" color-interpolation-filters="sRGB">
<feFlood flood-opacity="0" result="BackgroundImageFix"/>
<feBlend mode="normal" in="SourceGraphic" in2="BackgroundImageFix" result="shape"/>
<feColorMatrix in="SourceAlpha" type="matrix" values="0 0 0 0 0 0 0 0 0 0 0 0 0 0 0 0 0 0 127 0" result="hardAlpha"/>
<feOffset dy="4"/>
<feGaussianBlur stdDeviation="2"/>
<feComposite in2="hardAlpha" operator="arithmetic" k2="-1" k3="1"/>
<feColorMatrix type="matrix" values="0 0 0 0 0 0 0 0 0 0 0 0 0 0 0 0 0 0 0.5 0"/>
<feBlend mode="normal" in2="shape" result="effect1_innerShadow"/>
</filter>
</defs>
</svg>
