<svg width="80" height="77" viewBox="0 0 80 77" fill="none" xmlns="http://www.w3.org/2000/svg">
<g filter="url(#filter0_i)">
<circle cx="38.3093" cy="38.3199" r="35.1816" stroke="#6B2D03" stroke-width="5"/>
<ellipse cx="62.1086" cy="19.4774" rx="7.22171" ry="15.0999" transform="rotate(45 62.1086 19.4774)" fill="#6B2D03"/>
<path d="M47.8987 22.0196C48.4981 20.7811 50.1402 20.5038 51.1131 21.4768L52.9712 23.3348C53.7522 24.1159 53.7522 25.3822 52.9712 26.1633L47.1452 31.9893C46.4995 32.635 45.4838 32.725 44.7346 32.2029C43.9744 31.6731 43.7121 30.6693 44.1158 29.8353L46.2696 25.3855L47.8987 22.0196Z" fill="#6B2D03"/>
<path d="M59.4647 33.8647C60.7126 33.285 61.016 31.6476 60.0586 30.6593L58.2303 28.7719C57.4618 27.9786 56.1956 27.9585 55.4022 28.727L49.4844 34.4597C48.8285 35.0951 48.7224 36.1092 49.2325 36.8666C49.7502 37.6351 50.7496 37.9134 51.59 37.523L59.4647 33.8647Z" fill="#6B2D03"/>
<rect x="67.6793" y="11.1211" width="3.93911" height="3.93911" rx="1.96956" transform="rotate(45 67.6793 11.1211)" fill="white"/>
<ellipse cx="50.4496" cy="31.2532" rx="1.13782" ry="0.559488" transform="rotate(41.54 50.4496 31.2532)" fill="#929292"/>
<path d="M38.6163 39.5575C38.4466 39.7102 38.1947 39.5051 38.3098 39.308L40.2659 35.9563L41.8647 32.1278C41.9278 31.9768 42.1355 31.9613 42.2203 32.1012L43.1265 33.5967C43.1504 33.6362 43.1873 33.6662 43.2308 33.6816L44.8791 34.2653C45.0333 34.3199 45.0603 34.5265 44.9253 34.6189L41.5011 36.9616L38.6163 39.5575Z" fill="#929292"/>
<path d="M42.2188 43.2802C42.0224 43.3962 41.8161 43.1457 41.9675 42.9752L44.5308 40.0882L46.8361 36.6654C46.9275 36.5297 47.1342 36.5552 47.19 36.709L47.7859 38.352C47.8015 38.3952 47.8316 38.4317 47.8709 38.4553L49.3694 39.3549C49.5097 39.4391 49.495 39.6469 49.3444 39.7106L45.5434 41.3175L42.2188 43.2802Z" fill="#929292"/>
<mask id="path-9-inside-1" fill="white">
<path d="M38.7044 45.0958C34.6729 47.9661 29.7343 49.4097 24.7235 49.1825C19.7128 48.9554 14.9373 47.0715 11.2045 43.8493C7.47174 40.6271 5.01067 36.2643 4.2374 31.4986C3.46413 26.7328 4.42612 21.8565 6.96071 17.6941L11.2234 20.094C9.26388 23.312 8.52015 27.0819 9.11798 30.7664C9.7158 34.4509 11.6185 37.8238 14.5044 40.3149C17.3903 42.8061 21.0823 44.2626 24.9562 44.4382C28.8301 44.6138 32.6482 43.4977 35.765 41.2787L38.7044 45.0958Z"/>
</mask>
<path d="M38.7044 45.0958C34.6729 47.9661 29.7343 49.4097 24.7235 49.1825C19.7128 48.9554 14.9373 47.0715 11.2045 43.8493C7.47174 40.6271 5.01067 36.2643 4.2374 31.4986C3.46413 26.7328 4.42612 21.8565 6.96071 17.6941L11.2234 20.094C9.26388 23.312 8.52015 27.0819 9.11798 30.7664C9.7158 34.4509 11.6185 37.8238 14.5044 40.3149C17.3903 42.8061 21.0823 44.2626 24.9562 44.4382C28.8301 44.6138 32.6482 43.4977 35.765 41.2787L38.7044 45.0958Z" stroke="#6B2D03" stroke-width="6" mask="url(#path-9-inside-1)"/>
</g>
<defs>
<filter id="filter0_i" x="0.627686" y="0.638298" width="77.2647" height="79.3632" filterUnits="userSpaceOnUse" color-interpolation-filters="sRGB">
<feFlood flood-opacity="0" result="BackgroundImageFix"/>
<feBlend mode="normal" in="SourceGraphic" in2="BackgroundImageFix" result="shape"/>
<feColorMatrix in="SourceAlpha" type="matrix" values="0 0 0 0 0 0 0 0 0 0 0 0 0 0 0 0 0 0 127 0" result="hardAlpha"/>
<feOffset dy="4"/>
<feGaussianBlur stdDeviation="2"/>
<feComposite in2="hardAlpha" operator="arithmetic" k2="-1" k3="1"/>
<feColorMatrix type="matrix" values="0 0 0 0 0 0 0 0 0 0 0 0 0 0 0 0 0 0 0.5 0"/>
<feBlend mode="normal" in2="shape" result="effect1_innerShadow"/>
</filter>
</defs>
</svg>
