<svg width="50" height="47" viewBox="0 0 50 47" fill="none" xmlns="http://www.w3.org/2000/svg">
<g filter="url(#filter0_i)">
<circle cx="24.1276" cy="23.4574" r="21.9574" stroke="#606060" stroke-width="3"/>
<ellipse cx="38.943" cy="11.7277" rx="4.49563" ry="9.39996" transform="rotate(45 38.943 11.7277)" fill="#606060"/>
<path d="M29.6806 14.1708C30.2575 12.9788 31.8378 12.7119 32.7742 13.6483V13.6483C33.5259 14.4 33.5259 15.6187 32.7742 16.3704L29.628 19.5165C29.2261 19.9185 28.5938 19.9745 28.1274 19.6495V19.6495C27.6542 19.3196 27.4909 18.6948 27.7422 18.1756L29.083 15.4055L29.6806 14.1708Z" fill="#606060"/>
<path d="M36.4302 21.0868C37.6311 20.5289 37.9231 18.953 37.0017 18.0019V18.0019C36.2621 17.2384 35.0435 17.219 34.28 17.9587L31.0843 21.0544C30.676 21.4499 30.6099 22.0812 30.9275 22.5527V22.5527C31.2497 23.0311 31.8719 23.2043 32.395 22.9613L36.4302 21.0868Z" fill="#606060"/>
<rect x="42.4109" y="6.52574" width="2.45216" height="2.45216" rx="1.22608" transform="rotate(45 42.4109 6.52574)" fill="white"/>
<ellipse cx="31.6852" cy="19.0583" rx="0.708311" ry="0.348291" transform="rotate(41.54 31.6852 19.0583)" fill="#929292"/>
<path d="M24.6781 23.9044C24.5084 24.0571 24.2566 23.8521 24.3716 23.6549L25.3456 21.986L26.2836 19.7398C26.3467 19.5889 26.5544 19.5733 26.6392 19.7132L27.1124 20.4941C27.1363 20.5336 27.1732 20.5636 27.2167 20.579L28.0774 20.8838C28.2316 20.9384 28.2585 21.145 28.1235 21.2374L26.1145 22.6119L24.6781 23.9044Z" fill="#929292"/>
<path d="M26.9755 26.3008C26.7791 26.4167 26.5728 26.1663 26.7242 25.9958L28.0006 24.5582L29.3527 22.5506C29.4441 22.415 29.6508 22.4404 29.7066 22.5942L30.0178 23.4522C30.0334 23.4954 30.0635 23.5319 30.1028 23.5555L30.8854 24.0253C31.0256 24.1095 31.011 24.3173 30.8603 24.381L28.6309 25.3234L26.9755 26.3008Z" fill="#929292"/>
<mask id="path-9-inside-1" fill="white">
<path d="M24.3735 27.6756C21.8639 29.4623 18.7895 30.361 15.6702 30.2196C12.5509 30.0782 9.57812 28.9054 7.2544 26.8995C4.93068 24.8937 3.39862 22.1778 2.91724 19.211C2.43587 16.2443 3.03472 13.2087 4.61255 10.6175L7.26615 12.1115C6.04631 14.1147 5.58333 16.4616 5.95548 18.7552C6.32764 21.0489 7.5121 23.1486 9.30861 24.6994C11.1051 26.2501 13.4034 27.1568 15.815 27.2662C18.2266 27.3755 20.6034 26.6807 22.5437 25.2993L24.3735 27.6756Z"/>
</mask>
<path d="M24.3735 27.6756C21.8639 29.4623 18.7895 30.361 15.6702 30.2196C12.5509 30.0782 9.57812 28.9054 7.2544 26.8995C4.93068 24.8937 3.39862 22.1778 2.91724 19.211C2.43587 16.2443 3.03472 13.2087 4.61255 10.6175L7.26615 12.1115C6.04631 14.1147 5.58333 16.4616 5.95548 18.7552C6.32764 21.0489 7.5121 23.1486 9.30861 24.6994C11.1051 26.2501 13.4034 27.1568 15.815 27.2662C18.2266 27.3755 20.6034 26.6807 22.5437 25.2993L24.3735 27.6756Z" stroke="#606060" stroke-width="6" mask="url(#path-9-inside-1)"/>
</g>
<defs>
<filter id="filter0_i" x="0.670166" y="0" width="48.0985" height="50.9149" filterUnits="userSpaceOnUse" color-interpolation-filters="sRGB">
<feFlood flood-opacity="0" result="BackgroundImageFix"/>
<feBlend mode="normal" in="SourceGraphic" in2="BackgroundImageFix" result="shape"/>
<feColorMatrix in="SourceAlpha" type="matrix" values="0 0 0 0 0 0 0 0 0 0 0 0 0 0 0 0 0 0 127 0" result="hardAlpha"/>
<feOffset dy="4"/>
<feGaussianBlur stdDeviation="2"/>
<feComposite in2="hardAlpha" operator="arithmetic" k2="-1" k3="1"/>
<feColorMatrix type="matrix" values="0 0 0 0 0 0 0 0 0 0 0 0 0 0 0 0 0 0 0.5 0"/>
<feBlend mode="normal" in2="shape" result="effect1_innerShadow"/>
</filter>
</defs>
</svg>
