<svg width="717" height="703" viewBox="0 0 717 703" fill="none" xmlns="http://www.w3.org/2000/svg">
<g filter="url(#filter0_d)">
<ellipse cx="425.998" cy="260.672" rx="116.926" ry="244.481" transform="rotate(45 425.998 260.672)" fill="#F4F4F4"/>
<path d="M209.646 273.501C212.643 267.308 220.854 265.921 225.718 270.786L293.887 338.955C297.792 342.86 297.792 349.191 293.887 353.097L171.585 475.398C168.16 478.824 162.771 479.301 158.796 476.531L130.339 456.698C126.306 453.887 124.914 448.562 127.055 444.137L169.555 356.33L209.646 273.501Z" fill="#F4F4F4"/>
<path d="M411.742 480.354C417.982 477.455 419.499 469.268 414.712 464.327L347.635 395.084C343.792 391.117 337.462 391.017 333.495 394.859L209.266 515.202C205.786 518.573 205.223 523.953 207.93 527.971L227.309 556.741C230.055 560.818 235.357 562.294 239.816 560.223L411.742 480.354Z" fill="#F4F4F4"/>
<ellipse cx="237.441" cy="451.541" rx="18.4222" ry="9.05858" transform="rotate(45 237.441 451.541)" fill="#F4F4F4"/>
<ellipse cx="222.232" cy="465.85" rx="8.78621" ry="4.32035" transform="rotate(45 222.232 465.85)" fill="#F4F4F4"/>
</g>
<g filter="url(#filter1_d)">
<path d="M49.2707 582.526C45.8772 585.579 40.8393 581.479 43.1404 577.536L72.3527 527.483L97.6603 466.88C98.9212 463.861 103.077 463.55 104.772 466.349L118.527 489.047C119.005 489.836 119.742 490.436 120.612 490.744L145.63 499.604C148.715 500.697 149.254 504.828 146.554 506.676L92.351 543.76L49.2707 582.526Z" fill="#F4F4F4"/>
</g>
<g filter="url(#filter2_d)">
<path d="M108.153 643.596C104.225 645.915 100.1 640.907 103.129 637.496L141.408 594.382L177.896 540.207C179.723 537.494 183.858 538.002 184.974 541.078L194.018 566.018C194.331 566.881 194.932 567.611 195.719 568.083L218.464 581.738C221.269 583.422 220.977 587.578 217.963 588.851L157.802 614.285L108.153 643.596Z" fill="#F4F4F4"/>
</g>
<g filter="url(#filter3_i)">
<rect x="516.193" y="125.379" width="63.7775" height="63.7775" rx="15" transform="rotate(45 516.193 125.379)" fill="#DEDEDE"/>
</g>
<defs>
<filter id="filter0_d" x="72.8851" y="0.119522" width="643.665" height="644.898" filterUnits="userSpaceOnUse" color-interpolation-filters="sRGB">
<feFlood flood-opacity="0" result="BackgroundImageFix"/>
<feColorMatrix in="SourceAlpha" type="matrix" values="0 0 0 0 0 0 0 0 0 0 0 0 0 0 0 0 0 0 127 0"/>
<feOffset dx="15" dy="15"/>
<feGaussianBlur stdDeviation="10"/>
<feColorMatrix type="matrix" values="0 0 0 0 0 0 0 0 0 0 0 0 0 0 0 0 0 0 0.6 0"/>
<feBlend mode="normal" in2="BackgroundImageFix" result="effect1_dropShadow"/>
<feBlend mode="normal" in="SourceGraphic" in2="effect1_dropShadow" result="shape"/>
</filter>
<filter id="filter1_d" x="14.4913" y="457.785" width="170.44" height="179.875" filterUnits="userSpaceOnUse" color-interpolation-filters="sRGB">
<feFlood flood-opacity="0" result="BackgroundImageFix"/>
<feColorMatrix in="SourceAlpha" type="matrix" values="0 0 0 0 0 0 0 0 0 0 0 0 0 0 0 0 0 0 127 0"/>
<feOffset dx="15" dy="15"/>
<feGaussianBlur stdDeviation="10"/>
<feColorMatrix type="matrix" values="0 0 0 0 0 0 0 0 0 0 0 0 0 0 0 0 0 0 0.6 0"/>
<feBlend mode="normal" in2="BackgroundImageFix" result="effect1_dropShadow"/>
<feBlend mode="normal" in="SourceGraphic" in2="effect1_dropShadow" result="shape"/>
</filter>
<filter id="filter2_d" x="77.8893" y="531.802" width="179.156" height="170.348" filterUnits="userSpaceOnUse" color-interpolation-filters="sRGB">
<feFlood flood-opacity="0" result="BackgroundImageFix"/>
<feColorMatrix in="SourceAlpha" type="matrix" values="0 0 0 0 0 0 0 0 0 0 0 0 0 0 0 0 0 0 127 0"/>
<feOffset dx="15" dy="15"/>
<feGaussianBlur stdDeviation="10"/>
<feColorMatrix type="matrix" values="0 0 0 0 0 0 0 0 0 0 0 0 0 0 0 0 0 0 0.6 0"/>
<feBlend mode="normal" in2="BackgroundImageFix" result="effect1_dropShadow"/>
<feBlend mode="normal" in="SourceGraphic" in2="effect1_dropShadow" result="shape"/>
</filter>
<filter id="filter3_i" x="471.095" y="125.379" width="105.195" height="99.1951" filterUnits="userSpaceOnUse" color-interpolation-filters="sRGB">
<feFlood flood-opacity="0" result="BackgroundImageFix"/>
<feBlend mode="normal" in="SourceGraphic" in2="BackgroundImageFix" result="shape"/>
<feColorMatrix in="SourceAlpha" type="matrix" values="0 0 0 0 0 0 0 0 0 0 0 0 0 0 0 0 0 0 127 0" result="hardAlpha"/>
<feOffset dx="15" dy="9"/>
<feGaussianBlur stdDeviation="7.5"/>
<feComposite in2="hardAlpha" operator="arithmetic" k2="-1" k3="1"/>
<feColorMatrix type="matrix" values="0 0 0 0 0 0 0 0 0 0 0 0 0 0 0 0 0 0 0.25 0"/>
<feBlend mode="normal" in2="shape" result="effect1_innerShadow"/>
</filter>
</defs>
</svg>
