<svg width="90" height="90" viewBox="0 0 90 90" fill="none" xmlns="http://www.w3.org/2000/svg">
<g filter="url(#filter0_i)">
<ellipse cx="54.0369" cy="35.4638" rx="14.8317" ry="31.0118" transform="rotate(45 54.0369 35.4638)" fill="#6B2D03"/>
<path d="M26.1451 38.0171C26.7445 36.7786 28.3866 36.5013 29.3595 37.4743L36.7617 44.8765C37.5428 45.6576 37.5428 46.9239 36.7618 47.7049L22.1984 62.2682C21.5133 62.9534 20.4356 63.0489 19.6407 62.4948L17.0455 60.6861C16.2389 60.124 15.9605 59.0589 16.3888 58.174L21.5079 47.5978L26.1451 38.0171Z" fill="#6B2D03"/>
<path d="M51.2955 63.7634C52.5434 63.1837 52.8467 61.5463 51.8894 60.558L44.6057 53.0391C43.8371 52.2457 42.571 52.2256 41.7776 52.9941L26.9848 67.3242C26.2888 67.9984 26.1762 69.0744 26.7176 69.8781L28.4848 72.5017C29.0341 73.3171 30.0945 73.6124 30.9862 73.1982L51.2955 63.7634Z" fill="#6B2D03"/>
<rect x="65.4779" y="18.3022" width="8.09003" height="8.09003" rx="2" transform="rotate(45 65.4779 18.3022)" fill="white"/>
<ellipse cx="30.0929" cy="59.6491" rx="2.33682" ry="1.14906" transform="rotate(41.54 30.0929 59.6491)" fill="#6B2D03"/>
<path d="M4.78646 77.6071C4.61678 77.7597 4.36489 77.5547 4.47995 77.3576L9.17779 69.3081L12.6211 61.0627C12.6841 60.9117 12.8919 60.8962 12.9767 61.0361L15.0917 64.5265C15.1156 64.5659 15.1525 64.5959 15.196 64.6113L19.043 65.9737C19.1973 66.0284 19.2242 66.2349 19.0892 66.3273L11.7145 71.3729L4.78646 77.6071Z" fill="#6B2D03"/>
<path d="M12.0328 85.0324C11.8364 85.1483 11.6301 84.8979 11.7815 84.7274L17.9373 77.7941L22.9035 70.4207C22.9948 70.285 23.2016 70.3104 23.2574 70.4642L24.6479 74.2988C24.6636 74.342 24.6936 74.3785 24.733 74.4021L28.2302 76.5015C28.3704 76.5857 28.3558 76.7935 28.2051 76.8572L20.0169 80.3188L12.0328 85.0324Z" fill="#6B2D03"/>
</g>
<defs>
<filter id="filter0_i" x="4.45087" y="11.1507" width="73.8991" height="77.9113" filterUnits="userSpaceOnUse" color-interpolation-filters="sRGB">
<feFlood flood-opacity="0" result="BackgroundImageFix"/>
<feBlend mode="normal" in="SourceGraphic" in2="BackgroundImageFix" result="shape"/>
<feColorMatrix in="SourceAlpha" type="matrix" values="0 0 0 0 0 0 0 0 0 0 0 0 0 0 0 0 0 0 127 0" result="hardAlpha"/>
<feOffset dy="4"/>
<feGaussianBlur stdDeviation="2"/>
<feComposite in2="hardAlpha" operator="arithmetic" k2="-1" k3="1"/>
<feColorMatrix type="matrix" values="0 0 0 0 0 0 0 0 0 0 0 0 0 0 0 0 0 0 0.5 0"/>
<feBlend mode="normal" in2="shape" result="effect1_innerShadow"/>
</filter>
</defs>
</svg>
