<svg width="55" height="56" viewBox="0 0 55 56" fill="none" xmlns="http://www.w3.org/2000/svg">
<path d="M41.7373 53.8364C41.6805 54.0573 41.3575 54.026 41.344 53.7984L41.1121 49.8942L40.3135 45.8003C40.2821 45.6398 40.4463 45.5116 40.5945 45.5809L42.1973 46.3306C42.2389 46.35 42.2859 46.3546 42.3305 46.3434L44.0472 45.9147C44.2059 45.875 44.3425 46.0323 44.281 46.1839L42.7129 50.0489L41.7373 53.8364Z" fill="#C4C4C4"/>
<path d="M47.3408 34.7612C47.8133 33.4689 46.87 32.0966 45.4942 32.0747L42.7939 32.0318C41.6895 32.0142 40.7799 32.8953 40.7624 33.9998L40.6299 42.3384C40.6152 43.2603 41.2636 44.0602 42.1686 44.2368C43.087 44.4159 43.9993 43.9009 44.3206 43.0222L47.3408 34.7612Z" fill="#9D9D9D"/>
<ellipse cx="27.2637" cy="20.248" rx="7.29251" ry="15.248" fill="#9D9D9D"/>
<path d="M7.92376 34.6568C7.47188 33.3572 8.43687 32 9.81283 32L12.5135 32C13.6181 32 14.5135 32.8954 14.5135 34L14.5135 42.3396C14.5135 43.2618 13.8525 44.0512 12.9448 44.2134C12.0237 44.3779 11.1196 43.8485 10.8124 42.9647L9.17289 38.2495L7.92376 34.6568Z" fill="#9D9D9D"/>
<rect x="25.2748" y="10.3036" width="3.97774" height="3.97774" rx="1.98887" fill="white"/>
<path d="M13.827 53.8463C13.8149 54.0742 13.4919 54.1074 13.4338 53.8866L12.4341 50.0844L10.8406 46.2056C10.7784 46.0543 10.9143 45.8964 11.0732 45.9354L12.7925 46.3572C12.8374 46.3682 12.8846 46.3634 12.9263 46.3435L14.5242 45.5814C14.6718 45.511 14.837 45.638 14.8068 45.7988L14.0339 49.9203L13.827 53.8463Z" fill="#C4C4C4"/>
<rect x="28" y="55" width="1" height="55" rx="0.5" transform="rotate(-180 28 55)" fill="url(#paint0_linear)"/>
<rect y="28" width="1" height="55" rx="0.5" transform="rotate(-90 0 28)" fill="url(#paint1_linear)"/>
<rect x="55" y="42" width="1" height="55" rx="0.5" transform="rotate(90 55 42)" fill="url(#paint2_linear)"/>
<rect x="42" width="1" height="55" rx="0.5" fill="url(#paint3_linear)"/>
<rect x="55" y="12" width="1" height="55" rx="0.5" transform="rotate(90 55 12)" fill="url(#paint4_linear)"/>
<rect x="12" width="1" height="55" rx="0.5" fill="url(#paint5_linear)"/>
<defs>
<linearGradient id="paint0_linear" x1="28.5" y1="55" x2="28.5" y2="110" gradientUnits="userSpaceOnUse">
<stop stop-color="#14A811"/>
<stop offset="1" stop-color="#AAB530"/>
</linearGradient>
<linearGradient id="paint1_linear" x1="0.5" y1="28" x2="0.5" y2="83" gradientUnits="userSpaceOnUse">
<stop stop-color="#FFD600"/>
<stop offset="1" stop-color="#A9FF53" stop-opacity="0.38"/>
</linearGradient>
<linearGradient id="paint2_linear" x1="55.5" y1="42" x2="55.5" y2="97" gradientUnits="userSpaceOnUse">
<stop stop-color="#FFD600"/>
<stop offset="1" stop-color="#A9FF53" stop-opacity="0.38"/>
</linearGradient>
<linearGradient id="paint3_linear" x1="42.5" y1="0" x2="42.5" y2="55" gradientUnits="userSpaceOnUse">
<stop stop-color="#14A811"/>
<stop offset="1" stop-color="#AAB530"/>
</linearGradient>
<linearGradient id="paint4_linear" x1="55.5" y1="12" x2="55.5" y2="67" gradientUnits="userSpaceOnUse">
<stop stop-color="#FFD600"/>
<stop offset="1" stop-color="#A9FF53" stop-opacity="0.38"/>
</linearGradient>
<linearGradient id="paint5_linear" x1="12.5" y1="0" x2="12.5" y2="55" gradientUnits="userSpaceOnUse">
<stop stop-color="#14A811"/>
<stop offset="1" stop-color="#AAB530"/>
</linearGradient>
</defs>
</svg>
