<svg width="58" height="59" viewBox="0 0 58 59" fill="none" xmlns="http://www.w3.org/2000/svg">
<g filter="url(#filter0_i)">
<path d="M23.0237 53.5154C22.8273 53.6313 22.6211 53.3809 22.7725 53.2104L25.001 50.7004L27.0583 47.6458C27.1497 47.5101 27.3565 47.5356 27.4122 47.6894L27.934 49.1282C27.9497 49.1714 27.9797 49.2079 28.0191 49.2315L29.3313 50.0193C29.4716 50.1034 29.4569 50.3112 29.3063 50.3749L25.9141 51.809L23.0237 53.5154Z" fill="#C4C4C4"/>
<path d="M38.2177 45.2044C39.4656 44.6247 39.7689 42.9873 38.8116 41.999L37.4916 40.6364C36.7231 39.843 35.4569 39.8229 34.6635 40.5915L29.4679 45.6246C28.8764 46.1976 28.7807 47.1121 29.2408 47.7951V47.7951C29.7076 48.4881 30.6089 48.7391 31.3667 48.387L38.2177 45.2044Z" fill="#606060"/>
<path d="M13.5343 20.3914C14.1338 19.1529 15.7758 18.8756 16.7487 19.8486L18.0902 21.19C18.8712 21.971 18.8712 23.2374 18.0902 24.0184L12.9751 29.1335C12.3928 29.7158 11.4769 29.7969 10.8013 29.3261V29.3261C10.1158 28.8483 9.87917 27.9431 10.2432 27.191L12.1855 23.1781L13.5343 20.3914Z" fill="#606060"/>
<ellipse cx="34.977" cy="23.2345" rx="6.51254" ry="13.6171" transform="rotate(45 34.977 23.2345)" fill="#606060"/>
<rect x="40.0007" y="15.6989" width="3.55229" height="3.55229" rx="1.77615" transform="rotate(45 40.0007 15.6989)" fill="white"/>
<path d="M5.37729 35.8745C5.20761 36.0272 4.95572 35.8222 5.07077 35.625L6.77143 32.7111L8.1983 29.2942C8.26134 29.1433 8.46911 29.1277 8.5539 29.2677L9.34745 30.5772C9.37138 30.6167 9.40822 30.6467 9.45174 30.6621L10.8951 31.1733C11.0494 31.2279 11.0763 31.4345 10.9413 31.5269L7.8853 33.6177L5.37729 35.8745Z" fill="#C4C4C4"/>
</g>
<rect x="29.6713" y="57" width="1" height="55" rx="0.5" transform="rotate(-180 29.6713 57)" fill="#939393"/>
<rect x="1.67126" y="30" width="1" height="55" rx="0.5" transform="rotate(-90 1.67126 30)" fill="#939393"/>
<rect x="56.6713" y="44" width="1" height="55" rx="0.5" transform="rotate(90 56.6713 44)" fill="#939393"/>
<rect x="43.6713" y="2" width="1" height="55" rx="0.5" fill="#939393"/>
<rect x="56.6713" y="14" width="1" height="55" rx="0.5" transform="rotate(90 56.6713 14)" fill="#939393"/>
<rect x="13.6713" y="2" width="1" height="55" rx="0.5" fill="#939393"/>
<defs>
<filter id="filter0_i" x="3.73914" y="9.00072" width="45.4717" height="49.8408" filterUnits="userSpaceOnUse" color-interpolation-filters="sRGB">
<feFlood flood-opacity="0" result="BackgroundImageFix"/>
<feBlend mode="normal" in="SourceGraphic" in2="BackgroundImageFix" result="shape"/>
<feColorMatrix in="SourceAlpha" type="matrix" values="0 0 0 0 0 0 0 0 0 0 0 0 0 0 0 0 0 0 127 0" result="hardAlpha"/>
<feOffset dy="4"/>
<feGaussianBlur stdDeviation="2"/>
<feComposite in2="hardAlpha" operator="arithmetic" k2="-1" k3="1"/>
<feColorMatrix type="matrix" values="0 0 0 0 0 0 0 0 0 0 0 0 0 0 0 0 0 0 0.5 0"/>
<feBlend mode="normal" in2="shape" result="effect1_innerShadow"/>
</filter>
</defs>
</svg>
