<svg width="49" height="47" viewBox="0 0 49 47" fill="none" xmlns="http://www.w3.org/2000/svg">
<circle cx="23.4574" cy="23.4574" r="21.9574" stroke="#9D9D9D" stroke-width="3"/>
<ellipse cx="38.2729" cy="11.7276" rx="4.49563" ry="9.39996" transform="rotate(45 38.2729 11.7276)" fill="#9D9D9D"/>
<path d="M29.0105 14.1708C29.5874 12.9788 31.1677 12.7119 32.1041 13.6483C32.8557 14.4 32.8557 15.6187 32.1041 16.3704L28.9579 19.5165C28.556 19.9185 27.9237 19.9745 27.4573 19.6494C26.9841 19.3196 26.8208 18.6948 27.0721 18.1756L28.4129 15.4055L29.0105 14.1708Z" fill="#9D9D9D"/>
<path d="M35.7601 21.0867C36.961 20.5288 37.253 18.953 36.3316 18.0019C35.592 17.2383 34.3734 17.219 33.6099 17.9586L30.4142 21.0544C30.0059 21.4499 29.9398 22.0812 30.2574 22.5527C30.5796 23.0311 31.2018 23.2043 31.7249 22.9613L35.7601 21.0867Z" fill="#9D9D9D"/>
<rect x="41.7408" y="6.52573" width="2.45216" height="2.45216" rx="1.22608" transform="rotate(45 41.7408 6.52573)" fill="white"/>
<ellipse cx="31.0151" cy="19.0583" rx="0.708311" ry="0.348291" transform="rotate(41.54 31.0151 19.0583)" fill="#929292"/>
<path d="M24.008 23.9044C23.8383 24.0571 23.5864 23.852 23.7015 23.6549L24.6755 21.986L25.6135 19.7398C25.6766 19.5888 25.8843 19.5733 25.9691 19.7132L26.4423 20.4941C26.4662 20.5336 26.5031 20.5635 26.5466 20.579L27.4072 20.8838C27.5615 20.9384 27.5884 21.145 27.4534 21.2373L25.4444 22.6118L24.008 23.9044Z" fill="#929292"/>
<path d="M26.3054 26.3008C26.109 26.4167 25.9028 26.1663 26.0542 25.9958L27.3306 24.5582L28.6827 22.5506C28.774 22.415 28.9808 22.4404 29.0366 22.5942L29.3477 23.4522C29.3634 23.4954 29.3934 23.5319 29.4328 23.5555L30.2153 24.0253C30.3556 24.1095 30.3409 24.3173 30.1903 24.381L27.9609 25.3234L26.3054 26.3008Z" fill="#929292"/>
<mask id="path-9-inside-1" fill="white">
<path d="M23.7034 27.6756C21.1937 29.4623 18.1193 30.361 15 30.2196C11.8808 30.0782 8.90795 28.9054 6.58423 26.8996C4.26051 24.8937 2.72845 22.1778 2.24708 19.211C1.76571 16.2443 2.36456 13.2087 3.94238 10.6176L6.59598 12.1115C5.37614 14.1148 4.91316 16.4616 5.28532 18.7553C5.65747 21.0489 6.84194 23.1486 8.63844 24.6994C10.4349 26.2502 12.7333 27.1569 15.1448 27.2662C17.5564 27.3755 19.9333 26.6807 21.8735 25.2993L23.7034 27.6756Z"/>
</mask>
<path d="M23.7034 27.6756C21.1937 29.4623 18.1193 30.361 15 30.2196C11.8808 30.0782 8.90795 28.9054 6.58423 26.8996C4.26051 24.8937 2.72845 22.1778 2.24708 19.211C1.76571 16.2443 2.36456 13.2087 3.94238 10.6176L6.59598 12.1115C5.37614 14.1148 4.91316 16.4616 5.28532 18.7553C5.65747 21.0489 6.84194 23.1486 8.63844 24.6994C10.4349 26.2502 12.7333 27.1569 15.1448 27.2662C17.5564 27.3755 19.9333 26.6807 21.8735 25.2993L23.7034 27.6756Z" stroke="#9D9D9D" stroke-width="6" mask="url(#path-9-inside-1)"/>
</svg>
