<svg width="56" height="56" viewBox="0 0 56 56" fill="none" xmlns="http://www.w3.org/2000/svg">
<g filter="url(#filter0_i)">
<ellipse cx="33.6389" cy="21.9444" rx="9.23299" ry="19.3053" transform="rotate(45 33.6389 21.9444)" fill="#606060"/>
<path d="M15.8132 24.4896C16.4126 23.2511 18.0547 22.9738 19.0276 23.9467L22.351 27.2701C23.132 28.0511 23.132 29.3175 22.351 30.0985L14.2659 38.1836C13.5807 38.8687 12.503 38.9642 11.7081 38.4102L11.1397 38.014C10.3331 37.4519 10.0547 36.3869 10.483 35.5019L13.389 29.4979L15.8132 24.4896Z" fill="#606060"/>
<path d="M30.9694 40.0087C32.2173 39.4289 32.5206 37.7915 31.5633 36.8033L28.2931 33.4275C27.5246 32.6341 26.2584 32.614 25.4651 33.3826L17.2525 41.3382C16.5566 42.0124 16.444 43.0884 16.9853 43.892L17.3724 44.4667C17.9216 45.2821 18.9821 45.5774 19.8738 45.1632L30.9694 40.0087Z" fill="#606060"/>
<rect x="40.7611" y="11.261" width="5.03618" height="5.03618" rx="2" transform="rotate(45 40.7611 11.261)" fill="white"/>
<ellipse cx="18.7334" cy="37.0001" rx="1.45471" ry="0.715309" transform="rotate(41.54 18.7334 37.0001)" fill="#606060"/>
<path d="M3.33909 47.8558C3.16941 48.0085 2.91752 47.8035 3.03258 47.6063L5.71334 43.013L7.7996 38.0172C7.86264 37.8662 8.07041 37.8507 8.1552 37.9906L9.38089 40.0133C9.40481 40.0528 9.44166 40.0828 9.48517 40.0982L11.7146 40.8877C11.8688 40.9423 11.8958 41.1489 11.7608 41.2413L7.2925 44.2983L3.33909 47.8558Z" fill="#606060"/>
<path d="M7.90477 52.5571C7.70837 52.673 7.50211 52.4226 7.65354 52.2521L11.1663 48.2957L14.1748 43.8288C14.2662 43.6931 14.473 43.7185 14.5287 43.8723L15.3346 46.0946C15.3503 46.1378 15.3803 46.1742 15.4197 46.1979L17.4464 47.4145C17.5867 47.4987 17.572 47.7065 17.4214 47.7702L12.4609 49.8673L7.90477 52.5571Z" fill="#606060"/>
</g>
<defs>
<filter id="filter0_i" x="1.09186" y="1.76472" width="52.7267" height="56.7247" filterUnits="userSpaceOnUse" color-interpolation-filters="sRGB">
<feFlood flood-opacity="0" result="BackgroundImageFix"/>
<feBlend mode="normal" in="SourceGraphic" in2="BackgroundImageFix" result="shape"/>
<feColorMatrix in="SourceAlpha" type="matrix" values="0 0 0 0 0 0 0 0 0 0 0 0 0 0 0 0 0 0 127 0" result="hardAlpha"/>
<feOffset dy="4"/>
<feGaussianBlur stdDeviation="2"/>
<feComposite in2="hardAlpha" operator="arithmetic" k2="-1" k3="1"/>
<feColorMatrix type="matrix" values="0 0 0 0 0 0 0 0 0 0 0 0 0 0 0 0 0 0 0.5 0"/>
<feBlend mode="normal" in2="shape" result="effect1_innerShadow"/>
</filter>
</defs>
</svg>
