<svg width="57" height="56" viewBox="0 0 57 56" fill="none" xmlns="http://www.w3.org/2000/svg">
<ellipse cx="34.4687" cy="21.9444" rx="9.23299" ry="19.3053" transform="rotate(45 34.4687 21.9444)" fill="#9D9D9D"/>
<path d="M16.643 24.4896C17.2424 23.2511 18.8844 22.9738 19.8574 23.9467L23.1808 27.2701C23.9618 28.0511 23.9618 29.3175 23.1808 30.0985L15.0957 38.1836C14.4105 38.8687 13.3328 38.9642 12.5379 38.4102L11.9695 38.014C11.1629 37.4519 10.8845 36.3869 11.3128 35.5019L14.2188 29.4979L16.643 24.4896Z" fill="#9D9D9D"/>
<path d="M31.7992 40.0087C33.047 39.4289 33.3504 37.7915 32.393 36.8033L29.1229 33.4275C28.3544 32.6341 27.0882 32.614 26.2948 33.3826L18.0823 41.3382C17.3864 42.0124 17.2738 43.0884 17.8151 43.892L18.2022 44.4667C18.7514 45.2821 19.8119 45.5774 20.7036 45.1632L31.7992 40.0087Z" fill="#9D9D9D"/>
<rect x="41.5909" y="11.261" width="5.03618" height="5.03618" rx="2" transform="rotate(45 41.5909 11.261)" fill="white"/>
<ellipse cx="19.5632" cy="37.0001" rx="1.45471" ry="0.715309" transform="rotate(41.54 19.5632 37.0001)" fill="#C4C4C4"/>
<path d="M4.16888 47.8558C3.99921 48.0085 3.74731 47.8034 3.86237 47.6063L6.54313 43.013L8.62939 38.0172C8.69244 37.8662 8.90021 37.8507 8.98499 37.9906L10.2107 40.0133C10.2346 40.0528 10.2715 40.0827 10.315 40.0982L12.5444 40.8877C12.6986 40.9423 12.7256 41.1489 12.5906 41.2413L8.1223 44.2983L4.16888 47.8558Z" fill="#C4C4C4"/>
<path d="M8.73456 52.5571C8.53816 52.673 8.3319 52.4226 8.48332 52.2521L11.9961 48.2957L15.0046 43.8288C15.096 43.6931 15.3028 43.7185 15.3585 43.8723L16.1644 46.0946C16.1801 46.1378 16.2101 46.1742 16.2495 46.1979L18.2762 47.4145C18.4165 47.4987 18.4018 47.7065 18.2512 47.7702L13.2906 49.8673L8.73456 52.5571Z" fill="#C4C4C4"/>
</svg>
